<svg width="26" height="26" viewBox="0 0 26 26" fill="none" xmlns="http://www.w3.org/2000/svg">
<path d="M5.36364 13H1ZM25 13H20.6364ZM7.6 7.60001L4.51491 4.51492ZM21.4851 21.4851L18.4 18.4ZM7.6 18.4L4.51491 21.4851ZM21.4851 4.51492L18.4 7.60001Z" fill="#220953" fill-opacity="0.16"/>
<path d="M5.36364 13H1M25 13H20.6364M7.6 7.60001L4.51491 4.51492M21.4851 21.4851L18.4 18.4M7.6 18.4L4.51491 21.4851M21.4851 4.51492L18.4 7.60001" stroke="#220953" stroke-width="2" stroke-miterlimit="10" stroke-linecap="round"/>
<path d="M13 17.3636C14.1573 17.3636 15.2672 16.9039 16.0855 16.0855C16.9039 15.2672 17.3636 14.1573 17.3636 13C17.3636 11.8427 16.9039 10.7328 16.0855 9.91443C15.2672 9.09609 14.1573 8.63635 13 8.63635C11.8427 8.63635 10.7328 9.09609 9.91443 9.91443C9.09609 10.7328 8.63635 11.8427 8.63635 13C8.63635 14.1573 9.09609 15.2672 9.91443 16.0855C10.7328 16.9039 11.8427 17.3636 13 17.3636Z" fill="#220953" fill-opacity="0.16" stroke="#220953" stroke-width="2" stroke-miterlimit="10"/>
<path d="M13 20.6364V25ZM13 1V5.36364Z" fill="#220953" fill-opacity="0.16"/>
<path d="M13 20.6364V25M13 1V5.36364" stroke="#220953" stroke-width="2" stroke-miterlimit="10" stroke-linecap="round"/>
</svg>
