<svg width="122" height="107" viewBox="0 0 122 107" fill="none" xmlns="http://www.w3.org/2000/svg">
<path d="M84.2271 76.5089C71.1694 89.5661 56.7267 98.7141 43.9598 102.97C31.1454 107.241 20.2605 106.521 14.0085 100.269C7.75652 94.0171 7.03562 83.1321 11.3071 70.3173C15.5627 57.5504 24.7106 43.1077 37.7682 30.05C50.8259 16.9923 65.2687 7.84445 78.0355 3.58875C90.85 -0.68265 101.735 0.0381507 107.987 6.29015C114.239 12.5422 114.96 23.4271 110.688 36.2415C106.433 49.0084 97.285 63.4512 84.2271 76.5089Z" stroke="url(#paint0_linear_2022_2)" stroke-width="1.5"/>
<path d="M77.4258 81.7293C61.4334 90.962 45.1152 96.061 31.6819 96.867C18.1985 97.676 7.8711 94.163 3.4503 86.506C-0.970496 78.8485 1.1504 68.1479 8.5929 56.8756C16.0079 45.6452 28.582 34.0622 44.5744 24.829C60.5667 15.5959 76.885 10.4978 90.318 9.69154C103.802 8.88224 114.129 12.3957 118.55 20.0528C122.971 27.7099 120.85 38.4104 113.407 49.6827C105.992 60.9131 93.418 72.4961 77.4258 81.7293Z" stroke="url(#paint1_linear_2022_2)" stroke-width="1.5"/>
<defs>
<linearGradient id="paint0_linear_2022_2" x1="37.2379" y1="29.5196" x2="87.479" y2="62.8751" gradientUnits="userSpaceOnUse">
<stop stop-color="#FF62B7"/>
<stop offset="1" stop-color="#9F53FF"/>
</linearGradient>
<linearGradient id="paint1_linear_2022_2" x1="44.1994" y1="24.1795" x2="84.0958" y2="69.4018" gradientUnits="userSpaceOnUse">
<stop stop-color="#FF62B7"/>
<stop offset="1" stop-color="#9F53FF"/>
</linearGradient>
</defs>
</svg>
