<svg width="32" height="32" viewBox="0 0 32 32" fill="none" xmlns="http://www.w3.org/2000/svg">
<path d="M16 29.3334C8.63599 29.3334 2.66666 23.3641 2.66666 16.0001C2.66666 8.63608 8.63599 2.66675 16 2.66675C23.364 2.66675 29.3333 8.63608 29.3333 16.0001C29.3333 23.3641 23.364 29.3334 16 29.3334ZM14.1627 11.2201C14.0824 11.1665 13.9891 11.1358 13.8928 11.131C13.7964 11.1263 13.7006 11.1478 13.6155 11.1932C13.5304 11.2387 13.4592 11.3063 13.4095 11.389C13.3598 11.4717 13.3335 11.5663 13.3333 11.6627V20.3374C13.3335 20.4339 13.3598 20.5285 13.4095 20.6112C13.4592 20.6939 13.5304 20.7615 13.6155 20.8069C13.7006 20.8524 13.7964 20.8739 13.8928 20.8691C13.9891 20.8644 14.0824 20.8336 14.1627 20.7801L20.668 16.4441C20.7411 16.3954 20.8011 16.3294 20.8426 16.2519C20.8841 16.1745 20.9058 16.088 20.9058 16.0001C20.9058 15.9122 20.8841 15.8257 20.8426 15.7482C20.8011 15.6708 20.7411 15.6048 20.668 15.5561L14.1627 11.2201Z" fill="url(#paint0_linear_0_493)"/>
<defs>
<linearGradient id="paint0_linear_0_493" x1="2.66666" y1="16.0001" x2="25.6582" y2="9.05296" gradientUnits="userSpaceOnUse">
<stop stop-color="#FF52AF"/>
<stop offset="1" stop-color="#9F53FF"/>
</linearGradient>
</defs>
</svg>
