<svg width="32" height="32" viewBox="0 0 32 32" fill="none" xmlns="http://www.w3.org/2000/svg">
<path d="M13.1067 11.72L10.6667 12.608V17.3333H7.99999V10.7333H8.01999L15.044 8.176C15.3693 8.052 15.724 7.98933 16.0867 8.00133C16.8113 8.0194 17.5124 8.26281 18.0923 8.69771C18.6723 9.13261 19.1023 9.7374 19.3227 10.428C19.5707 11.2053 19.7973 11.7307 20.0027 12.004C20.6232 12.8315 21.4281 13.503 22.3534 13.9652C23.2787 14.4274 24.299 14.6675 25.3333 14.6667V17.3333C23.9564 17.3348 22.5962 17.031 21.3508 16.4438C20.1054 15.8566 19.0056 15.0006 18.1307 13.9373L17.356 18.3333L20 20.8933V30.6667H17.3333V22.6853L14.6 20.036L13.3373 25.7667L4.14532 24.1467L4.60932 21.52L11.1747 22.6773L13.1067 11.72ZM18 7.33333C17.2927 7.33333 16.6145 7.05238 16.1144 6.55228C15.6143 6.05219 15.3333 5.37391 15.3333 4.66667C15.3333 3.95942 15.6143 3.28115 16.1144 2.78105C16.6145 2.28095 17.2927 2 18 2C18.7072 2 19.3855 2.28095 19.8856 2.78105C20.3857 3.28115 20.6667 3.95942 20.6667 4.66667C20.6667 5.37391 20.3857 6.05219 19.8856 6.55228C19.3855 7.05238 18.7072 7.33333 18 7.33333Z" fill="url(#paint0_linear_0_489)"/>
<defs>
<linearGradient id="paint0_linear_0_489" x1="4.14533" y1="16.3333" x2="23.134" y2="12.0926" gradientUnits="userSpaceOnUse">
<stop stop-color="#FF52AF"/>
<stop offset="1" stop-color="#9F53FF"/>
</linearGradient>
</defs>
</svg>
